<svg version="1.0" xmlns="http://www.w3.org/2000/svg"
 width="529" height="529" viewBox="238.800 668.550 529.400 529.400"
 preserveAspectRatio="xMidYMid meet">
<g fill-rule="nonzero"
fill="#97A2A9" stroke="none">
<path d="
M 532.100 723.000 C 568.800 726.600 601.000 737.600 630.400 756.700
C 660.800 776.300 683.600 801.100 701.300 833.800
L 706.800 844.000 L 697.400 854.300
C 687.600 864.800 686.000 866.200 686.000 863.800
C 686.000 862.000 675.200 840.900 670.500 833.500
C 663.400 822.400 655.300 812.600 644.400 801.900
C 616.500 774.600 587.000 759.300 547.000 751.200
C 534.600 748.700 531.700 748.500 511.500 748.600
C 491.800 748.700 488.200 749.000 477.000 751.300
C 434.600 760.200 405.200 775.700 376.400 804.500
C 347.200 833.700 330.200 867.800 324.600 908.800
C 321.800 928.900 323.200 957.600 328.000 977.500
C 334.100 1003.200 349.600 1034.400 364.400 1050.700
L 369.000 1055.800 L 358.300 1058.400
C 352.300 1059.800 345.600 1061.300 343.300 1061.800
L 339.100 1062.800 L 332.500 1053.000
C 314.400 1026.000 302.100 992.500 298.000 959.000
C 296.700 948.000 296.700 918.800 298.000 908.000
C 300.800 885.900 307.800 861.700 317.000 842.600
C 337.600 799.700 372.100 765.100 415.200 744.000
C 451.000 726.500 492.200 719.100 532.100 723.000
Z
M 733.800 736.600 C 757.300 740.600 767.200 752.400 767.200 776.500
C 767.100 793.200 761.800 808.400 748.500 829.900
C 738.200 846.600 727.100 859.700 697.600 889.900
C 668.600 919.600 636.400 945.500 591.000 975.500
C 494.800 1039.100 388.600 1084.500 316.900 1092.500
C 272.600 1097.400 250.000 1089.600 242.900 1066.900
C 239.800 1057.000 240.900 1046.400 246.500 1032.400
C 251.000 1021.000 264.300 1000.900 275.600 988.500
L 279.200 984.500 L 277.100 988.000
C 272.100 996.100 265.000 1011.100 262.400 1019.000
C 258.700 1030.300 258.300 1046.000 261.600 1053.100
C 270.100 1071.400 290.900 1078.000 325.900 1073.600
C 366.400 1068.400 432.400 1045.400 491.000 1016.100
C 580.300 971.400 667.500 906.300 710.800 852.200
C 734.500 822.500 745.400 800.400 745.500 782.000
C 745.500 765.700 739.000 755.600 723.600 748.000
C 711.000 741.700 699.600 739.700 678.300 740.200
C 668.900 740.400 661.200 740.400 661.400 740.300
C 662.000 739.700 686.100 735.800 694.100 735.100
C 705.400 734.000 722.400 734.700 733.800 736.600
Z
M 564.300 854.700 C 559.600 866.700 552.100 886.200 547.500 898.000
C 542.900 909.800 534.000 932.800 527.500 949.000
C 521.100 965.200 514.400 982.300 512.700 986.900
L 509.500 995.300 L 495.200 1002.200
C 487.300 1006.000 480.700 1009.000 480.500 1008.800
C 480.400 1008.600 484.700 997.000 490.200 983.000
C 513.900 921.800 523.000 898.600 534.700 869.000
C 541.600 851.700 547.600 836.500 548.100 835.200
C 548.900 833.100 549.400 833.000 560.900 833.000
L 572.800 833.000 L 564.300 854.700
Z
M 461.900 843.400 L 470.400 851.900 L 442.900 880.200
C 427.700 895.800 412.200 911.900 408.200 916.100
L 401.100 923.600 L 413.600 936.100
C 420.500 942.900 435.200 957.900 446.200 969.300
L 466.300 990.100 L 457.900 998.600
L 449.500 1007.000 L 408.300 965.800
C 385.600 943.100 367.100 924.200 367.200 923.800
C 367.600 922.800 452.300 835.100 453.000 835.100
C 453.300 835.000 457.300 838.800 461.900 843.400
Z
M 614.000 891.000 L 614.000 906.000 L 599.500 906.000
L 585.000 906.000 L 585.000 891.000
L 585.000 876.000 L 599.500 876.000
L 614.000 876.000 L 614.000 891.000
Z
M 723.600 900.500 C 726.100 914.100 726.600 947.500 724.600 962.100
C 715.600 1026.800 680.100 1081.300 624.700 1115.600
C 599.600 1131.200 570.300 1141.500 539.700 1145.500
C 524.600 1147.400 496.500 1147.400 481.800 1145.500
C 450.800 1141.400 419.700 1129.800 394.100 1112.700
C 383.000 1105.200 367.100 1093.000 367.000 1091.900
C 367.000 1091.500 368.000 1091.000 369.300 1090.700
C 370.500 1090.500 377.000 1088.600 383.700 1086.700
L 395.900 1083.100 L 405.600 1089.600
C 417.800 1097.700 438.500 1108.000 450.900 1112.000
C 469.000 1117.900 482.600 1120.100 504.000 1120.700
C 541.400 1121.700 571.000 1115.000 602.200 1098.200
C 619.000 1089.300 630.200 1080.800 645.000 1066.000
C 668.700 1042.300 683.100 1018.600 692.400 987.700
C 698.100 968.900 700.400 953.100 700.300 933.500
C 700.300 924.100 699.800 913.600 699.200 910.100
L 698.100 903.700 L 708.800 892.500
L 719.500 881.300 L 720.700 886.400
C 721.400 889.200 722.700 895.500 723.600 900.500
Z
M 614.000 985.000 L 614.000 997.000 L 599.500 997.000
L 585.000 997.000 L 585.000 994.600
C 585.000 992.700 586.600 991.000 591.700 987.300
C 598.000 982.800 613.100 973.000 613.700 973.000
C 613.900 973.000 614.000 978.400 614.000 985.000
Z
"/>
</g>
</svg>
